<mxfile host="Electron" agent="Mozilla/5.0 (Windows NT 10.0; Win64; x64) AppleWebKit/537.36 (KHTML, like Gecko) draw.io/24.7.17 Chrome/128.0.6613.36 Electron/32.0.1 Safari/537.36" version="24.7.17">
  <diagram id="C5RBs43oDa-KdzZeNtuy" name="Page-1">
    <mxGraphModel dx="1008" dy="592" grid="1" gridSize="10" guides="1" tooltips="1" connect="1" arrows="1" fold="1" page="1" pageScale="1" pageWidth="827" pageHeight="1169" math="0" shadow="0">
      <root>
        <mxCell id="WIyWlLk6GJQsqaUBKTNV-0" />
        <mxCell id="WIyWlLk6GJQsqaUBKTNV-1" parent="WIyWlLk6GJQsqaUBKTNV-0" />
        <mxCell id="bXmoCgsXG05vqkLezJaW-2" value="" style="edgeStyle=orthogonalEdgeStyle;rounded=0;orthogonalLoop=1;jettySize=auto;html=1;" edge="1" parent="WIyWlLk6GJQsqaUBKTNV-1" source="bXmoCgsXG05vqkLezJaW-0" target="bXmoCgsXG05vqkLezJaW-1">
          <mxGeometry relative="1" as="geometry" />
        </mxCell>
        <mxCell id="bXmoCgsXG05vqkLezJaW-0" value="Start" style="ellipse;whiteSpace=wrap;html=1;" vertex="1" parent="WIyWlLk6GJQsqaUBKTNV-1">
          <mxGeometry x="10" y="10" width="120" height="30" as="geometry" />
        </mxCell>
        <mxCell id="bXmoCgsXG05vqkLezJaW-4" value="" style="edgeStyle=orthogonalEdgeStyle;rounded=0;orthogonalLoop=1;jettySize=auto;html=1;" edge="1" parent="WIyWlLk6GJQsqaUBKTNV-1" source="bXmoCgsXG05vqkLezJaW-1" target="bXmoCgsXG05vqkLezJaW-3">
          <mxGeometry relative="1" as="geometry" />
        </mxCell>
        <mxCell id="bXmoCgsXG05vqkLezJaW-1" value="init n and Mas[]" style="whiteSpace=wrap;html=1;" vertex="1" parent="WIyWlLk6GJQsqaUBKTNV-1">
          <mxGeometry x="10" y="65" width="120" height="30" as="geometry" />
        </mxCell>
        <mxCell id="bXmoCgsXG05vqkLezJaW-6" value="" style="edgeStyle=orthogonalEdgeStyle;rounded=0;orthogonalLoop=1;jettySize=auto;html=1;" edge="1" parent="WIyWlLk6GJQsqaUBKTNV-1" source="bXmoCgsXG05vqkLezJaW-3" target="bXmoCgsXG05vqkLezJaW-5">
          <mxGeometry relative="1" as="geometry" />
        </mxCell>
        <mxCell id="bXmoCgsXG05vqkLezJaW-3" value="output &quot;input n&lt;span style=&quot;background-color: initial;&quot;&gt;&quot;&lt;/span&gt;&lt;div&gt;&lt;span style=&quot;background-color: initial;&quot;&gt;input n&lt;/span&gt;&lt;/div&gt;" style="shape=parallelogram;perimeter=parallelogramPerimeter;whiteSpace=wrap;html=1;fixedSize=1;" vertex="1" parent="WIyWlLk6GJQsqaUBKTNV-1">
          <mxGeometry x="150" y="65" width="120" height="30" as="geometry" />
        </mxCell>
        <mxCell id="bXmoCgsXG05vqkLezJaW-10" value="" style="edgeStyle=orthogonalEdgeStyle;rounded=0;orthogonalLoop=1;jettySize=auto;html=1;" edge="1" parent="WIyWlLk6GJQsqaUBKTNV-1" source="bXmoCgsXG05vqkLezJaW-5" target="bXmoCgsXG05vqkLezJaW-9">
          <mxGeometry relative="1" as="geometry" />
        </mxCell>
        <mxCell id="bXmoCgsXG05vqkLezJaW-5" value="i = 0" style="whiteSpace=wrap;html=1;" vertex="1" parent="WIyWlLk6GJQsqaUBKTNV-1">
          <mxGeometry x="180" y="10" width="60" height="30" as="geometry" />
        </mxCell>
        <mxCell id="bXmoCgsXG05vqkLezJaW-12" value="" style="edgeStyle=orthogonalEdgeStyle;rounded=0;orthogonalLoop=1;jettySize=auto;html=1;" edge="1" parent="WIyWlLk6GJQsqaUBKTNV-1" source="bXmoCgsXG05vqkLezJaW-9" target="bXmoCgsXG05vqkLezJaW-11">
          <mxGeometry relative="1" as="geometry" />
        </mxCell>
        <mxCell id="bXmoCgsXG05vqkLezJaW-19" value="" style="edgeStyle=orthogonalEdgeStyle;rounded=0;orthogonalLoop=1;jettySize=auto;html=1;" edge="1" parent="WIyWlLk6GJQsqaUBKTNV-1" source="bXmoCgsXG05vqkLezJaW-9" target="bXmoCgsXG05vqkLezJaW-18">
          <mxGeometry relative="1" as="geometry" />
        </mxCell>
        <mxCell id="bXmoCgsXG05vqkLezJaW-9" value="i &amp;lt;&amp;nbsp; n" style="rhombus;whiteSpace=wrap;html=1;" vertex="1" parent="WIyWlLk6GJQsqaUBKTNV-1">
          <mxGeometry x="334" width="80" height="50" as="geometry" />
        </mxCell>
        <mxCell id="bXmoCgsXG05vqkLezJaW-15" style="edgeStyle=orthogonalEdgeStyle;rounded=0;orthogonalLoop=1;jettySize=auto;html=1;exitX=0;exitY=0.5;exitDx=0;exitDy=0;" edge="1" parent="WIyWlLk6GJQsqaUBKTNV-1" source="bXmoCgsXG05vqkLezJaW-11">
          <mxGeometry relative="1" as="geometry">
            <mxPoint x="300" y="30" as="targetPoint" />
          </mxGeometry>
        </mxCell>
        <mxCell id="bXmoCgsXG05vqkLezJaW-11" value="Mas[i] = rand()&lt;div&gt;i++&lt;/div&gt;" style="whiteSpace=wrap;html=1;" vertex="1" parent="WIyWlLk6GJQsqaUBKTNV-1">
          <mxGeometry x="329" y="65" width="90" height="35" as="geometry" />
        </mxCell>
        <mxCell id="bXmoCgsXG05vqkLezJaW-21" value="" style="edgeStyle=orthogonalEdgeStyle;rounded=0;orthogonalLoop=1;jettySize=auto;html=1;" edge="1" parent="WIyWlLk6GJQsqaUBKTNV-1" source="bXmoCgsXG05vqkLezJaW-18" target="bXmoCgsXG05vqkLezJaW-20">
          <mxGeometry relative="1" as="geometry" />
        </mxCell>
        <mxCell id="bXmoCgsXG05vqkLezJaW-18" value="output &quot;primary Mas&quot;" style="shape=parallelogram;perimeter=parallelogramPerimeter;whiteSpace=wrap;html=1;fixedSize=1;" vertex="1" parent="WIyWlLk6GJQsqaUBKTNV-1">
          <mxGeometry x="440" y="10" width="120" height="30" as="geometry" />
        </mxCell>
        <mxCell id="bXmoCgsXG05vqkLezJaW-23" value="" style="edgeStyle=orthogonalEdgeStyle;rounded=0;orthogonalLoop=1;jettySize=auto;html=1;" edge="1" parent="WIyWlLk6GJQsqaUBKTNV-1" source="bXmoCgsXG05vqkLezJaW-20" target="bXmoCgsXG05vqkLezJaW-22">
          <mxGeometry relative="1" as="geometry" />
        </mxCell>
        <mxCell id="bXmoCgsXG05vqkLezJaW-20" value="i = 0" style="whiteSpace=wrap;html=1;" vertex="1" parent="WIyWlLk6GJQsqaUBKTNV-1">
          <mxGeometry x="590" y="10" width="90" height="30" as="geometry" />
        </mxCell>
        <mxCell id="bXmoCgsXG05vqkLezJaW-25" value="" style="edgeStyle=orthogonalEdgeStyle;rounded=0;orthogonalLoop=1;jettySize=auto;html=1;" edge="1" parent="WIyWlLk6GJQsqaUBKTNV-1" source="bXmoCgsXG05vqkLezJaW-22" target="bXmoCgsXG05vqkLezJaW-24">
          <mxGeometry relative="1" as="geometry" />
        </mxCell>
        <mxCell id="bXmoCgsXG05vqkLezJaW-30" value="" style="edgeStyle=orthogonalEdgeStyle;rounded=0;orthogonalLoop=1;jettySize=auto;html=1;" edge="1" parent="WIyWlLk6GJQsqaUBKTNV-1" source="bXmoCgsXG05vqkLezJaW-22" target="bXmoCgsXG05vqkLezJaW-29">
          <mxGeometry relative="1" as="geometry" />
        </mxCell>
        <mxCell id="bXmoCgsXG05vqkLezJaW-22" value="i &amp;lt; n" style="rhombus;whiteSpace=wrap;html=1;" vertex="1" parent="WIyWlLk6GJQsqaUBKTNV-1">
          <mxGeometry x="592.5" y="65" width="85" height="45" as="geometry" />
        </mxCell>
        <mxCell id="bXmoCgsXG05vqkLezJaW-27" value="" style="edgeStyle=orthogonalEdgeStyle;rounded=0;orthogonalLoop=1;jettySize=auto;html=1;" edge="1" parent="WIyWlLk6GJQsqaUBKTNV-1" source="bXmoCgsXG05vqkLezJaW-24" target="bXmoCgsXG05vqkLezJaW-26">
          <mxGeometry relative="1" as="geometry" />
        </mxCell>
        <mxCell id="bXmoCgsXG05vqkLezJaW-24" value="output Mas[i]" style="shape=parallelogram;perimeter=parallelogramPerimeter;whiteSpace=wrap;html=1;fixedSize=1;" vertex="1" parent="WIyWlLk6GJQsqaUBKTNV-1">
          <mxGeometry x="690" y="72.5" width="100" height="30" as="geometry" />
        </mxCell>
        <mxCell id="bXmoCgsXG05vqkLezJaW-28" style="edgeStyle=orthogonalEdgeStyle;rounded=0;orthogonalLoop=1;jettySize=auto;html=1;exitX=0.5;exitY=0;exitDx=0;exitDy=0;entryX=0.5;entryY=0;entryDx=0;entryDy=0;" edge="1" parent="WIyWlLk6GJQsqaUBKTNV-1" source="bXmoCgsXG05vqkLezJaW-26" target="bXmoCgsXG05vqkLezJaW-22">
          <mxGeometry relative="1" as="geometry" />
        </mxCell>
        <mxCell id="bXmoCgsXG05vqkLezJaW-26" value="i++" style="whiteSpace=wrap;html=1;" vertex="1" parent="WIyWlLk6GJQsqaUBKTNV-1">
          <mxGeometry x="810" y="72.5" width="80" height="30" as="geometry" />
        </mxCell>
        <mxCell id="bXmoCgsXG05vqkLezJaW-32" value="" style="edgeStyle=orthogonalEdgeStyle;rounded=0;orthogonalLoop=1;jettySize=auto;html=1;" edge="1" parent="WIyWlLk6GJQsqaUBKTNV-1" source="bXmoCgsXG05vqkLezJaW-29" target="bXmoCgsXG05vqkLezJaW-31">
          <mxGeometry relative="1" as="geometry" />
        </mxCell>
        <mxCell id="bXmoCgsXG05vqkLezJaW-29" value="init maxi and mini" style="whiteSpace=wrap;html=1;" vertex="1" parent="WIyWlLk6GJQsqaUBKTNV-1">
          <mxGeometry x="470" y="67.5" width="100" height="40" as="geometry" />
        </mxCell>
        <mxCell id="bXmoCgsXG05vqkLezJaW-34" value="" style="edgeStyle=orthogonalEdgeStyle;rounded=0;orthogonalLoop=1;jettySize=auto;html=1;" edge="1" parent="WIyWlLk6GJQsqaUBKTNV-1" source="bXmoCgsXG05vqkLezJaW-31" target="bXmoCgsXG05vqkLezJaW-33">
          <mxGeometry relative="1" as="geometry" />
        </mxCell>
        <mxCell id="bXmoCgsXG05vqkLezJaW-31" value="i = 1" style="whiteSpace=wrap;html=1;" vertex="1" parent="WIyWlLk6GJQsqaUBKTNV-1">
          <mxGeometry x="470" y="130" width="100" height="30" as="geometry" />
        </mxCell>
        <mxCell id="bXmoCgsXG05vqkLezJaW-36" value="" style="edgeStyle=orthogonalEdgeStyle;rounded=0;orthogonalLoop=1;jettySize=auto;html=1;" edge="1" parent="WIyWlLk6GJQsqaUBKTNV-1" source="bXmoCgsXG05vqkLezJaW-33" target="bXmoCgsXG05vqkLezJaW-35">
          <mxGeometry relative="1" as="geometry" />
        </mxCell>
        <mxCell id="bXmoCgsXG05vqkLezJaW-49" value="" style="edgeStyle=orthogonalEdgeStyle;rounded=0;orthogonalLoop=1;jettySize=auto;html=1;" edge="1" parent="WIyWlLk6GJQsqaUBKTNV-1" source="bXmoCgsXG05vqkLezJaW-33" target="bXmoCgsXG05vqkLezJaW-48">
          <mxGeometry relative="1" as="geometry" />
        </mxCell>
        <mxCell id="bXmoCgsXG05vqkLezJaW-33" value="i &amp;lt; n" style="rhombus;whiteSpace=wrap;html=1;" vertex="1" parent="WIyWlLk6GJQsqaUBKTNV-1">
          <mxGeometry x="480" y="180" width="80" height="50" as="geometry" />
        </mxCell>
        <mxCell id="bXmoCgsXG05vqkLezJaW-38" value="" style="edgeStyle=orthogonalEdgeStyle;rounded=0;orthogonalLoop=1;jettySize=auto;html=1;" edge="1" parent="WIyWlLk6GJQsqaUBKTNV-1" source="bXmoCgsXG05vqkLezJaW-35" target="bXmoCgsXG05vqkLezJaW-37">
          <mxGeometry relative="1" as="geometry" />
        </mxCell>
        <mxCell id="bXmoCgsXG05vqkLezJaW-42" value="" style="edgeStyle=orthogonalEdgeStyle;rounded=0;orthogonalLoop=1;jettySize=auto;html=1;" edge="1" parent="WIyWlLk6GJQsqaUBKTNV-1" source="bXmoCgsXG05vqkLezJaW-35" target="bXmoCgsXG05vqkLezJaW-41">
          <mxGeometry relative="1" as="geometry" />
        </mxCell>
        <mxCell id="bXmoCgsXG05vqkLezJaW-35" value="if Mas[i] &amp;lt; Mas[mini]" style="rhombus;whiteSpace=wrap;html=1;" vertex="1" parent="WIyWlLk6GJQsqaUBKTNV-1">
          <mxGeometry x="360" y="180" width="80" height="50" as="geometry" />
        </mxCell>
        <mxCell id="bXmoCgsXG05vqkLezJaW-40" value="" style="edgeStyle=orthogonalEdgeStyle;rounded=0;orthogonalLoop=1;jettySize=auto;html=1;" edge="1" parent="WIyWlLk6GJQsqaUBKTNV-1" source="bXmoCgsXG05vqkLezJaW-37" target="bXmoCgsXG05vqkLezJaW-39">
          <mxGeometry relative="1" as="geometry" />
        </mxCell>
        <mxCell id="bXmoCgsXG05vqkLezJaW-44" value="" style="edgeStyle=orthogonalEdgeStyle;rounded=0;orthogonalLoop=1;jettySize=auto;html=1;" edge="1" parent="WIyWlLk6GJQsqaUBKTNV-1" source="bXmoCgsXG05vqkLezJaW-37" target="bXmoCgsXG05vqkLezJaW-43">
          <mxGeometry relative="1" as="geometry" />
        </mxCell>
        <mxCell id="bXmoCgsXG05vqkLezJaW-37" value="if Mas[i] &amp;gt; Mas[maxi]" style="rhombus;whiteSpace=wrap;html=1;" vertex="1" parent="WIyWlLk6GJQsqaUBKTNV-1">
          <mxGeometry x="260" y="180" width="80" height="50" as="geometry" />
        </mxCell>
        <mxCell id="bXmoCgsXG05vqkLezJaW-47" style="edgeStyle=orthogonalEdgeStyle;rounded=0;orthogonalLoop=1;jettySize=auto;html=1;exitX=0.5;exitY=0;exitDx=0;exitDy=0;entryX=0.5;entryY=0;entryDx=0;entryDy=0;" edge="1" parent="WIyWlLk6GJQsqaUBKTNV-1" source="bXmoCgsXG05vqkLezJaW-39" target="bXmoCgsXG05vqkLezJaW-33">
          <mxGeometry relative="1" as="geometry">
            <Array as="points">
              <mxPoint x="190" y="170" />
              <mxPoint x="520" y="170" />
            </Array>
          </mxGeometry>
        </mxCell>
        <mxCell id="bXmoCgsXG05vqkLezJaW-39" value="i++" style="whiteSpace=wrap;html=1;" vertex="1" parent="WIyWlLk6GJQsqaUBKTNV-1">
          <mxGeometry x="150" y="190" width="80" height="30" as="geometry" />
        </mxCell>
        <mxCell id="bXmoCgsXG05vqkLezJaW-45" style="edgeStyle=orthogonalEdgeStyle;rounded=0;orthogonalLoop=1;jettySize=auto;html=1;exitX=0.5;exitY=1;exitDx=0;exitDy=0;entryX=0.5;entryY=1;entryDx=0;entryDy=0;" edge="1" parent="WIyWlLk6GJQsqaUBKTNV-1" source="bXmoCgsXG05vqkLezJaW-41" target="bXmoCgsXG05vqkLezJaW-39">
          <mxGeometry relative="1" as="geometry" />
        </mxCell>
        <mxCell id="bXmoCgsXG05vqkLezJaW-41" value="mini = i" style="whiteSpace=wrap;html=1;" vertex="1" parent="WIyWlLk6GJQsqaUBKTNV-1">
          <mxGeometry x="360" y="250" width="80" height="30" as="geometry" />
        </mxCell>
        <mxCell id="bXmoCgsXG05vqkLezJaW-46" style="edgeStyle=orthogonalEdgeStyle;rounded=0;orthogonalLoop=1;jettySize=auto;html=1;exitX=0.5;exitY=1;exitDx=0;exitDy=0;" edge="1" parent="WIyWlLk6GJQsqaUBKTNV-1" source="bXmoCgsXG05vqkLezJaW-43">
          <mxGeometry relative="1" as="geometry">
            <mxPoint x="190" y="220" as="targetPoint" />
          </mxGeometry>
        </mxCell>
        <mxCell id="bXmoCgsXG05vqkLezJaW-43" value="maxi = i" style="whiteSpace=wrap;html=1;" vertex="1" parent="WIyWlLk6GJQsqaUBKTNV-1">
          <mxGeometry x="260" y="250" width="80" height="30" as="geometry" />
        </mxCell>
        <mxCell id="bXmoCgsXG05vqkLezJaW-51" value="" style="edgeStyle=orthogonalEdgeStyle;rounded=0;orthogonalLoop=1;jettySize=auto;html=1;" edge="1" parent="WIyWlLk6GJQsqaUBKTNV-1" source="bXmoCgsXG05vqkLezJaW-48" target="bXmoCgsXG05vqkLezJaW-50">
          <mxGeometry relative="1" as="geometry" />
        </mxCell>
        <mxCell id="bXmoCgsXG05vqkLezJaW-48" value="init a = Mas[mini]&lt;div&gt;Mas[mini] = Mas[maxi]&lt;/div&gt;&lt;div&gt;Mas[maxi] = a&lt;/div&gt;&lt;div&gt;init sum, i = 0&lt;/div&gt;" style="whiteSpace=wrap;html=1;" vertex="1" parent="WIyWlLk6GJQsqaUBKTNV-1">
          <mxGeometry x="450" y="250" width="140" height="60" as="geometry" />
        </mxCell>
        <mxCell id="bXmoCgsXG05vqkLezJaW-53" value="" style="edgeStyle=orthogonalEdgeStyle;rounded=0;orthogonalLoop=1;jettySize=auto;html=1;" edge="1" parent="WIyWlLk6GJQsqaUBKTNV-1" source="bXmoCgsXG05vqkLezJaW-50" target="bXmoCgsXG05vqkLezJaW-52">
          <mxGeometry relative="1" as="geometry" />
        </mxCell>
        <mxCell id="bXmoCgsXG05vqkLezJaW-56" value="" style="edgeStyle=orthogonalEdgeStyle;rounded=0;orthogonalLoop=1;jettySize=auto;html=1;" edge="1" parent="WIyWlLk6GJQsqaUBKTNV-1" source="bXmoCgsXG05vqkLezJaW-50" target="bXmoCgsXG05vqkLezJaW-55">
          <mxGeometry relative="1" as="geometry" />
        </mxCell>
        <mxCell id="bXmoCgsXG05vqkLezJaW-50" value="i &amp;lt; n" style="rhombus;whiteSpace=wrap;html=1;" vertex="1" parent="WIyWlLk6GJQsqaUBKTNV-1">
          <mxGeometry x="620" y="255" width="80" height="50" as="geometry" />
        </mxCell>
        <mxCell id="bXmoCgsXG05vqkLezJaW-54" style="edgeStyle=orthogonalEdgeStyle;rounded=0;orthogonalLoop=1;jettySize=auto;html=1;exitX=0.5;exitY=0;exitDx=0;exitDy=0;entryX=0;entryY=0.5;entryDx=0;entryDy=0;" edge="1" parent="WIyWlLk6GJQsqaUBKTNV-1" source="bXmoCgsXG05vqkLezJaW-52" target="bXmoCgsXG05vqkLezJaW-50">
          <mxGeometry relative="1" as="geometry">
            <Array as="points">
              <mxPoint x="780" y="240" />
              <mxPoint x="620" y="240" />
            </Array>
          </mxGeometry>
        </mxCell>
        <mxCell id="bXmoCgsXG05vqkLezJaW-52" value="sum += Mas[i]&lt;div&gt;i++&lt;/div&gt;" style="whiteSpace=wrap;html=1;" vertex="1" parent="WIyWlLk6GJQsqaUBKTNV-1">
          <mxGeometry x="720" y="260" width="120" height="40" as="geometry" />
        </mxCell>
        <mxCell id="bXmoCgsXG05vqkLezJaW-58" value="" style="edgeStyle=orthogonalEdgeStyle;rounded=0;orthogonalLoop=1;jettySize=auto;html=1;" edge="1" parent="WIyWlLk6GJQsqaUBKTNV-1" source="bXmoCgsXG05vqkLezJaW-55" target="bXmoCgsXG05vqkLezJaW-57">
          <mxGeometry relative="1" as="geometry" />
        </mxCell>
        <mxCell id="bXmoCgsXG05vqkLezJaW-55" value="average = sum / n&lt;div&gt;cond = average * 1,1&lt;/div&gt;&lt;div&gt;init massz&lt;/div&gt;&lt;div&gt;i = 0&lt;/div&gt;" style="whiteSpace=wrap;html=1;" vertex="1" parent="WIyWlLk6GJQsqaUBKTNV-1">
          <mxGeometry x="600" y="330" width="120" height="60" as="geometry" />
        </mxCell>
        <mxCell id="bXmoCgsXG05vqkLezJaW-60" value="" style="edgeStyle=orthogonalEdgeStyle;rounded=0;orthogonalLoop=1;jettySize=auto;html=1;" edge="1" parent="WIyWlLk6GJQsqaUBKTNV-1" source="bXmoCgsXG05vqkLezJaW-57" target="bXmoCgsXG05vqkLezJaW-59">
          <mxGeometry relative="1" as="geometry" />
        </mxCell>
        <mxCell id="bXmoCgsXG05vqkLezJaW-68" value="" style="edgeStyle=orthogonalEdgeStyle;rounded=0;orthogonalLoop=1;jettySize=auto;html=1;" edge="1" parent="WIyWlLk6GJQsqaUBKTNV-1" source="bXmoCgsXG05vqkLezJaW-57" target="bXmoCgsXG05vqkLezJaW-67">
          <mxGeometry relative="1" as="geometry" />
        </mxCell>
        <mxCell id="bXmoCgsXG05vqkLezJaW-57" value="i &amp;lt; n" style="rhombus;whiteSpace=wrap;html=1;" vertex="1" parent="WIyWlLk6GJQsqaUBKTNV-1">
          <mxGeometry x="490" y="330" width="80" height="60" as="geometry" />
        </mxCell>
        <mxCell id="bXmoCgsXG05vqkLezJaW-62" value="" style="edgeStyle=orthogonalEdgeStyle;rounded=0;orthogonalLoop=1;jettySize=auto;html=1;" edge="1" parent="WIyWlLk6GJQsqaUBKTNV-1" source="bXmoCgsXG05vqkLezJaW-59" target="bXmoCgsXG05vqkLezJaW-61">
          <mxGeometry relative="1" as="geometry" />
        </mxCell>
        <mxCell id="bXmoCgsXG05vqkLezJaW-64" value="" style="edgeStyle=orthogonalEdgeStyle;rounded=0;orthogonalLoop=1;jettySize=auto;html=1;" edge="1" parent="WIyWlLk6GJQsqaUBKTNV-1" source="bXmoCgsXG05vqkLezJaW-59" target="bXmoCgsXG05vqkLezJaW-63">
          <mxGeometry relative="1" as="geometry" />
        </mxCell>
        <mxCell id="bXmoCgsXG05vqkLezJaW-59" value="if Mas[i] &amp;lt;= cond" style="rhombus;whiteSpace=wrap;html=1;" vertex="1" parent="WIyWlLk6GJQsqaUBKTNV-1">
          <mxGeometry x="380" y="330" width="80" height="60" as="geometry" />
        </mxCell>
        <mxCell id="bXmoCgsXG05vqkLezJaW-65" style="edgeStyle=orthogonalEdgeStyle;rounded=0;orthogonalLoop=1;jettySize=auto;html=1;exitX=0;exitY=0.5;exitDx=0;exitDy=0;entryX=0.5;entryY=1;entryDx=0;entryDy=0;" edge="1" parent="WIyWlLk6GJQsqaUBKTNV-1" source="bXmoCgsXG05vqkLezJaW-61" target="bXmoCgsXG05vqkLezJaW-63">
          <mxGeometry relative="1" as="geometry" />
        </mxCell>
        <mxCell id="bXmoCgsXG05vqkLezJaW-61" value="Mas[massz++] = Mas[i]" style="whiteSpace=wrap;html=1;" vertex="1" parent="WIyWlLk6GJQsqaUBKTNV-1">
          <mxGeometry x="370" y="410" width="100" height="30" as="geometry" />
        </mxCell>
        <mxCell id="bXmoCgsXG05vqkLezJaW-66" style="edgeStyle=orthogonalEdgeStyle;rounded=0;orthogonalLoop=1;jettySize=auto;html=1;exitX=0.5;exitY=0;exitDx=0;exitDy=0;entryX=1;entryY=0.5;entryDx=0;entryDy=0;" edge="1" parent="WIyWlLk6GJQsqaUBKTNV-1" source="bXmoCgsXG05vqkLezJaW-63" target="bXmoCgsXG05vqkLezJaW-57">
          <mxGeometry relative="1" as="geometry">
            <Array as="points">
              <mxPoint x="320" y="320" />
              <mxPoint x="580" y="320" />
              <mxPoint x="580" y="360" />
            </Array>
          </mxGeometry>
        </mxCell>
        <mxCell id="bXmoCgsXG05vqkLezJaW-63" value="i++" style="whiteSpace=wrap;html=1;" vertex="1" parent="WIyWlLk6GJQsqaUBKTNV-1">
          <mxGeometry x="280" y="350" width="80" height="20" as="geometry" />
        </mxCell>
        <mxCell id="bXmoCgsXG05vqkLezJaW-70" value="" style="edgeStyle=orthogonalEdgeStyle;rounded=0;orthogonalLoop=1;jettySize=auto;html=1;" edge="1" parent="WIyWlLk6GJQsqaUBKTNV-1" source="bXmoCgsXG05vqkLezJaW-67" target="bXmoCgsXG05vqkLezJaW-69">
          <mxGeometry relative="1" as="geometry" />
        </mxCell>
        <mxCell id="bXmoCgsXG05vqkLezJaW-67" value="output &quot;resulting Mas&quot;" style="shape=parallelogram;perimeter=parallelogramPerimeter;whiteSpace=wrap;html=1;fixedSize=1;" vertex="1" parent="WIyWlLk6GJQsqaUBKTNV-1">
          <mxGeometry x="480" y="420" width="150" height="30" as="geometry" />
        </mxCell>
        <mxCell id="bXmoCgsXG05vqkLezJaW-72" value="" style="edgeStyle=orthogonalEdgeStyle;rounded=0;orthogonalLoop=1;jettySize=auto;html=1;" edge="1" parent="WIyWlLk6GJQsqaUBKTNV-1" source="bXmoCgsXG05vqkLezJaW-69" target="bXmoCgsXG05vqkLezJaW-71">
          <mxGeometry relative="1" as="geometry" />
        </mxCell>
        <mxCell id="bXmoCgsXG05vqkLezJaW-69" value="i = 0" style="whiteSpace=wrap;html=1;" vertex="1" parent="WIyWlLk6GJQsqaUBKTNV-1">
          <mxGeometry x="650" y="420" width="90" height="30" as="geometry" />
        </mxCell>
        <mxCell id="bXmoCgsXG05vqkLezJaW-74" value="" style="edgeStyle=orthogonalEdgeStyle;rounded=0;orthogonalLoop=1;jettySize=auto;html=1;" edge="1" parent="WIyWlLk6GJQsqaUBKTNV-1" source="bXmoCgsXG05vqkLezJaW-71" target="bXmoCgsXG05vqkLezJaW-73">
          <mxGeometry relative="1" as="geometry" />
        </mxCell>
        <mxCell id="bXmoCgsXG05vqkLezJaW-80" value="" style="edgeStyle=orthogonalEdgeStyle;rounded=0;orthogonalLoop=1;jettySize=auto;html=1;" edge="1" parent="WIyWlLk6GJQsqaUBKTNV-1" source="bXmoCgsXG05vqkLezJaW-71" target="bXmoCgsXG05vqkLezJaW-79">
          <mxGeometry relative="1" as="geometry" />
        </mxCell>
        <mxCell id="bXmoCgsXG05vqkLezJaW-71" value="i &amp;lt; massz" style="rhombus;whiteSpace=wrap;html=1;" vertex="1" parent="WIyWlLk6GJQsqaUBKTNV-1">
          <mxGeometry x="655" y="470" width="80" height="60" as="geometry" />
        </mxCell>
        <mxCell id="bXmoCgsXG05vqkLezJaW-76" value="" style="edgeStyle=orthogonalEdgeStyle;rounded=0;orthogonalLoop=1;jettySize=auto;html=1;" edge="1" parent="WIyWlLk6GJQsqaUBKTNV-1" source="bXmoCgsXG05vqkLezJaW-73" target="bXmoCgsXG05vqkLezJaW-75">
          <mxGeometry relative="1" as="geometry" />
        </mxCell>
        <mxCell id="bXmoCgsXG05vqkLezJaW-73" value="output Ma[i]" style="shape=parallelogram;perimeter=parallelogramPerimeter;whiteSpace=wrap;html=1;fixedSize=1;" vertex="1" parent="WIyWlLk6GJQsqaUBKTNV-1">
          <mxGeometry x="540" y="480" width="110" height="40" as="geometry" />
        </mxCell>
        <mxCell id="bXmoCgsXG05vqkLezJaW-78" style="edgeStyle=orthogonalEdgeStyle;rounded=0;orthogonalLoop=1;jettySize=auto;html=1;exitX=0.5;exitY=1;exitDx=0;exitDy=0;entryX=0.5;entryY=1;entryDx=0;entryDy=0;" edge="1" parent="WIyWlLk6GJQsqaUBKTNV-1" source="bXmoCgsXG05vqkLezJaW-75" target="bXmoCgsXG05vqkLezJaW-71">
          <mxGeometry relative="1" as="geometry">
            <Array as="points">
              <mxPoint x="485" y="550" />
              <mxPoint x="695" y="550" />
            </Array>
          </mxGeometry>
        </mxCell>
        <mxCell id="bXmoCgsXG05vqkLezJaW-75" value="i++" style="whiteSpace=wrap;html=1;" vertex="1" parent="WIyWlLk6GJQsqaUBKTNV-1">
          <mxGeometry x="450" y="490" width="70" height="20" as="geometry" />
        </mxCell>
        <mxCell id="bXmoCgsXG05vqkLezJaW-79" value="Finish" style="ellipse;whiteSpace=wrap;html=1;" vertex="1" parent="WIyWlLk6GJQsqaUBKTNV-1">
          <mxGeometry x="780" y="480" width="80" height="40" as="geometry" />
        </mxCell>
        <mxCell id="bXmoCgsXG05vqkLezJaW-81" value="+" style="text;html=1;align=center;verticalAlign=middle;whiteSpace=wrap;rounded=0;" vertex="1" parent="WIyWlLk6GJQsqaUBKTNV-1">
          <mxGeometry x="320" y="40" width="60" height="30" as="geometry" />
        </mxCell>
        <mxCell id="bXmoCgsXG05vqkLezJaW-82" value="+" style="text;html=1;align=center;verticalAlign=middle;whiteSpace=wrap;rounded=0;" vertex="1" parent="WIyWlLk6GJQsqaUBKTNV-1">
          <mxGeometry x="655" y="60" width="60" height="30" as="geometry" />
        </mxCell>
        <mxCell id="bXmoCgsXG05vqkLezJaW-83" value="+" style="text;html=1;align=center;verticalAlign=middle;whiteSpace=wrap;rounded=0;" vertex="1" parent="WIyWlLk6GJQsqaUBKTNV-1">
          <mxGeometry x="430" y="180" width="60" height="30" as="geometry" />
        </mxCell>
        <mxCell id="bXmoCgsXG05vqkLezJaW-84" value="+" style="text;html=1;align=center;verticalAlign=middle;whiteSpace=wrap;rounded=0;" vertex="1" parent="WIyWlLk6GJQsqaUBKTNV-1">
          <mxGeometry x="354" y="225" width="60" height="30" as="geometry" />
        </mxCell>
        <mxCell id="bXmoCgsXG05vqkLezJaW-85" value="+" style="text;html=1;align=center;verticalAlign=middle;whiteSpace=wrap;rounded=0;" vertex="1" parent="WIyWlLk6GJQsqaUBKTNV-1">
          <mxGeometry x="260" y="220" width="60" height="30" as="geometry" />
        </mxCell>
        <mxCell id="bXmoCgsXG05vqkLezJaW-86" value="+" style="text;html=1;align=center;verticalAlign=middle;whiteSpace=wrap;rounded=0;" vertex="1" parent="WIyWlLk6GJQsqaUBKTNV-1">
          <mxGeometry x="675" y="255" width="60" height="30" as="geometry" />
        </mxCell>
        <mxCell id="bXmoCgsXG05vqkLezJaW-87" value="+" style="text;html=1;align=center;verticalAlign=middle;whiteSpace=wrap;rounded=0;" vertex="1" parent="WIyWlLk6GJQsqaUBKTNV-1">
          <mxGeometry x="450" y="330" width="60" height="30" as="geometry" />
        </mxCell>
        <mxCell id="bXmoCgsXG05vqkLezJaW-88" value="+" style="text;html=1;align=center;verticalAlign=middle;whiteSpace=wrap;rounded=0;" vertex="1" parent="WIyWlLk6GJQsqaUBKTNV-1">
          <mxGeometry x="370" y="380" width="60" height="30" as="geometry" />
        </mxCell>
        <mxCell id="bXmoCgsXG05vqkLezJaW-89" value="+" style="text;html=1;align=center;verticalAlign=middle;whiteSpace=wrap;rounded=0;" vertex="1" parent="WIyWlLk6GJQsqaUBKTNV-1">
          <mxGeometry x="630" y="470" width="60" height="30" as="geometry" />
        </mxCell>
        <mxCell id="bXmoCgsXG05vqkLezJaW-90" value="Text" style="text;html=1;align=center;verticalAlign=middle;whiteSpace=wrap;rounded=0;" vertex="1" parent="WIyWlLk6GJQsqaUBKTNV-1">
          <mxGeometry x="480" y="260" width="60" height="30" as="geometry" />
        </mxCell>
        <mxCell id="bXmoCgsXG05vqkLezJaW-92" value="-" style="text;html=1;align=center;verticalAlign=middle;whiteSpace=wrap;rounded=0;" vertex="1" parent="WIyWlLk6GJQsqaUBKTNV-1">
          <mxGeometry x="400" width="60" height="30" as="geometry" />
        </mxCell>
        <mxCell id="bXmoCgsXG05vqkLezJaW-93" value="-" style="text;html=1;align=center;verticalAlign=middle;whiteSpace=wrap;rounded=0;" vertex="1" parent="WIyWlLk6GJQsqaUBKTNV-1">
          <mxGeometry x="565" y="60" width="60" height="30" as="geometry" />
        </mxCell>
        <mxCell id="bXmoCgsXG05vqkLezJaW-94" value="-" style="text;html=1;align=center;verticalAlign=middle;whiteSpace=wrap;rounded=0;" vertex="1" parent="WIyWlLk6GJQsqaUBKTNV-1">
          <mxGeometry x="505" y="220" width="60" height="30" as="geometry" />
        </mxCell>
        <mxCell id="bXmoCgsXG05vqkLezJaW-95" value="-" style="text;html=1;align=center;verticalAlign=middle;whiteSpace=wrap;rounded=0;" vertex="1" parent="WIyWlLk6GJQsqaUBKTNV-1">
          <mxGeometry x="320" y="180" width="60" height="30" as="geometry" />
        </mxCell>
        <mxCell id="bXmoCgsXG05vqkLezJaW-96" value="-" style="text;html=1;align=center;verticalAlign=middle;whiteSpace=wrap;rounded=0;" vertex="1" parent="WIyWlLk6GJQsqaUBKTNV-1">
          <mxGeometry x="220" y="180" width="60" height="30" as="geometry" />
        </mxCell>
        <mxCell id="bXmoCgsXG05vqkLezJaW-97" value="-" style="text;html=1;align=center;verticalAlign=middle;whiteSpace=wrap;rounded=0;" vertex="1" parent="WIyWlLk6GJQsqaUBKTNV-1">
          <mxGeometry x="640" y="300" width="60" height="30" as="geometry" />
        </mxCell>
        <mxCell id="bXmoCgsXG05vqkLezJaW-98" value="-" style="text;html=1;align=center;verticalAlign=middle;whiteSpace=wrap;rounded=0;" vertex="1" parent="WIyWlLk6GJQsqaUBKTNV-1">
          <mxGeometry x="344" y="330" width="60" height="30" as="geometry" />
        </mxCell>
        <mxCell id="bXmoCgsXG05vqkLezJaW-99" value="-" style="text;html=1;align=center;verticalAlign=middle;whiteSpace=wrap;rounded=0;" vertex="1" parent="WIyWlLk6GJQsqaUBKTNV-1">
          <mxGeometry x="510" y="380" width="60" height="30" as="geometry" />
        </mxCell>
        <mxCell id="bXmoCgsXG05vqkLezJaW-100" value="-" style="text;html=1;align=center;verticalAlign=middle;whiteSpace=wrap;rounded=0;" vertex="1" parent="WIyWlLk6GJQsqaUBKTNV-1">
          <mxGeometry x="720" y="470" width="60" height="30" as="geometry" />
        </mxCell>
      </root>
    </mxGraphModel>
  </diagram>
</mxfile>
